<svg xmlns="http://www.w3.org/2000/svg" viewBox="0 0 800 800" width="800" height="800">
<g fill="none" stroke="currentColor" stroke-width="3.4" stroke-linejoin="round">
<path d="M283.3 300.0Q283.3 300.0 282.7 302.1Q282.2 304.2 280.9 306.0Q279.5 307.9 277.7 309.3Q275.9 310.8 274.1 312.0Q272.2 313.3 270.8 314.6Q269.3 315.9 268.2 317.5Q267.0 319.2 265.8 321.3Q264.5 323.3 262.7 325.3Q260.8 327.3 258.3 328.7Q255.8 330.1 252.9 330.3Q250.0 330.6 247.2 329.7Q244.4 328.9 242.1 327.3Q239.8 325.8 237.9 324.1Q236.1 322.4 234.4 320.9Q232.8 319.4 231.1 318.2Q229.4 316.9 227.6 315.6Q225.9 314.4 224.3 312.9Q222.8 311.4 221.7 309.6Q220.6 307.8 220.1 305.9Q219.6 303.9 219.4 302.0Q219.3 300.0 219.1 298.0Q219.0 296.0 218.8 293.8Q218.6 291.6 218.7 289.3Q218.8 287.0 219.7 284.7Q220.5 282.4 222.3 280.6Q224.1 278.8 226.8 277.8Q229.4 276.8 232.4 276.7Q235.4 276.6 238.2 277.0Q241.1 277.4 243.4 277.8Q245.8 278.2 247.9 278.2Q250.0 278.1 252.2 277.6Q254.4 277.1 257.0 276.5Q259.6 275.9 262.4 275.8Q265.1 275.6 267.8 276.3Q270.4 277.0 272.5 278.4Q274.6 279.8 276.2 281.7Q277.7 283.5 278.7 285.5Q279.8 287.6 280.7 289.6Q281.5 291.6 282.2 293.7Q282.8 295.7 283.1 297.9Z"></path><path d="M302.2 300.0Q302.2 300.0 301.3 303.3Q300.4 306.5 298.2 309.4Q296.0 312.3 293.0 314.5Q290.0 316.7 287.1 318.6Q284.2 320.4 282.0 322.4Q279.8 324.4 278.1 327.1Q276.4 329.8 274.5 333.1Q272.6 336.4 269.9 339.8Q267.1 343.1 263.1 345.3Q259.2 347.6 254.6 348.0Q250.0 348.4 245.6 347.0Q241.2 345.6 237.6 343.0Q234.0 340.4 231.2 337.6Q228.4 334.8 225.9 332.5Q223.4 330.1 220.7 328.1Q218.1 326.2 215.3 324.2Q212.6 322.3 210.1 320.0Q207.6 317.7 206.0 314.9Q204.3 312.2 203.5 309.2Q202.7 306.1 202.4 303.1Q202.2 300.0 201.9 296.9Q201.6 293.7 201.2 290.3Q200.9 286.9 200.9 283.2Q200.9 279.5 202.1 275.8Q203.3 272.2 206.2 269.3Q209.0 266.4 213.3 264.9Q217.6 263.4 222.4 263.4Q227.2 263.4 231.7 264.2Q236.2 265.1 239.9 265.8Q243.5 266.6 246.8 266.5Q250.0 266.4 253.4 265.5Q256.8 264.6 260.9 263.5Q264.9 262.4 269.3 262.1Q273.8 261.8 277.9 262.8Q282.1 263.7 285.5 266.0Q288.8 268.2 291.1 271.1Q293.5 274.1 295.1 277.3Q296.7 280.5 298.1 283.7Q299.4 286.8 300.4 290.1Q301.5 293.3 301.8 296.7Z"></path><path d="M321.2 300.0Q321.2 300.0 319.9 304.5Q318.6 308.9 315.5 312.8Q312.4 316.6 308.1 319.6Q303.9 322.5 299.9 324.9Q295.9 327.3 292.8 330.0Q289.8 332.7 287.7 336.4Q285.5 340.1 283.2 344.8Q280.8 349.6 277.1 354.3Q273.4 359.0 268.0 362.3Q262.7 365.5 256.3 366.1Q250.0 366.7 244.0 364.6Q237.9 362.6 233.0 358.8Q228.2 355.1 224.4 351.2Q220.7 347.2 217.4 343.9Q214.1 340.5 210.5 337.9Q207.0 335.3 203.2 332.7Q199.4 330.1 196.0 327.1Q192.6 324.0 190.3 320.2Q188.0 316.5 187.0 312.4Q185.9 308.3 185.6 304.2Q185.2 300.0 184.7 295.7Q184.3 291.5 183.7 286.8Q183.0 282.2 182.9 277.0Q182.8 271.9 184.3 266.8Q185.8 261.8 189.7 257.8Q193.7 253.8 199.6 251.8Q205.6 249.9 212.3 250.0Q219.0 250.2 225.2 251.6Q231.4 253.0 236.4 254.2Q241.4 255.3 245.7 255.3Q250.0 255.2 254.6 253.8Q259.2 252.4 264.7 250.7Q270.2 249.1 276.3 248.4Q282.4 247.8 288.2 249.1Q294.0 250.3 298.6 253.4Q303.2 256.4 306.3 260.5Q309.4 264.6 311.6 269.0Q313.8 273.3 315.6 277.7Q317.4 282.0 318.8 286.5Q320.3 290.9 320.7 295.4Z"></path><path d="M340.3 300.0Q340.3 300.0 338.6 305.6Q336.9 311.3 332.8 316.1Q328.6 321.0 323.1 324.6Q317.6 328.2 312.3 331.1Q307.1 334.0 303.3 337.3Q299.6 340.6 297.0 345.4Q294.5 350.2 291.7 356.4Q288.9 362.7 284.4 369.0Q279.8 375.2 273.0 379.5Q266.2 383.8 258.1 384.6Q250.0 385.4 242.3 382.6Q234.6 379.8 228.4 374.9Q222.3 369.9 217.7 364.7Q213.1 359.4 209.0 355.1Q205.0 350.8 200.5 347.5Q196.1 344.2 191.3 341.0Q186.5 337.9 182.1 334.0Q177.8 330.2 174.8 325.5Q171.9 320.8 170.6 315.6Q169.3 310.5 168.8 305.2Q168.3 300.0 167.7 294.6Q167.1 289.2 166.1 283.3Q165.1 277.4 164.7 270.8Q164.3 264.2 166.1 257.7Q168.0 251.1 172.9 246.0Q177.9 240.9 185.7 238.5Q193.4 236.1 202.1 236.5Q210.8 237.0 218.8 239.0Q226.7 241.1 233.0 242.8Q239.3 244.5 244.6 244.5Q250.0 244.4 255.7 242.5Q261.5 240.5 268.5 238.2Q275.4 235.8 283.3 234.8Q291.2 233.8 298.6 235.2Q306.1 236.7 311.9 240.6Q317.7 244.5 321.7 249.7Q325.6 255.0 328.3 260.6Q331.0 266.2 333.3 271.7Q335.5 277.2 337.3 282.8Q339.2 288.4 339.7 294.2Z"></path><path d="M359.6 300.0Q359.6 300.0 357.5 306.8Q355.3 313.7 350.1 319.5Q344.8 325.3 337.9 329.5Q330.9 333.8 324.4 337.2Q318.0 340.5 313.5 344.4Q309.0 348.4 306.1 354.2Q303.3 360.1 300.2 367.9Q297.1 375.8 291.7 383.7Q286.3 391.7 278.1 397.2Q269.8 402.6 259.9 403.6Q250.0 404.6 240.6 401.0Q231.2 397.4 223.8 391.1Q216.4 384.8 211.0 378.2Q205.5 371.6 200.8 366.3Q196.0 360.9 190.7 356.9Q185.4 353.0 179.6 349.2Q173.7 345.5 168.4 340.9Q163.0 336.3 159.5 330.7Q155.9 325.1 154.3 318.9Q152.8 312.6 152.2 306.3Q151.6 300.0 150.7 293.5Q149.9 287.0 148.4 279.8Q147.0 272.6 146.3 264.5Q145.6 256.4 147.6 248.3Q149.7 240.2 155.8 234.0Q161.9 227.8 171.5 224.9Q181.0 222.1 191.8 223.0Q202.6 223.8 212.4 226.6Q222.1 229.5 229.7 231.8Q237.3 234.2 243.6 234.1Q250.0 234.0 256.9 231.5Q263.7 229.0 272.2 225.8Q280.7 222.6 290.3 221.1Q300.0 219.6 309.1 221.3Q318.3 223.0 325.4 227.7Q332.5 232.3 337.2 238.8Q342.0 245.2 345.2 252.1Q348.3 258.9 351.0 265.6Q353.7 272.4 356.0 279.2Q358.2 285.9 358.9 293.0Z"></path><path d="M379.0 300.0Q379.0 300.0 376.4 308.0Q373.7 316.1 367.3 322.8Q360.9 329.6 352.5 334.4Q344.0 339.3 336.2 343.0Q328.5 346.8 323.3 351.3Q318.0 355.8 315.0 362.8Q311.9 369.8 308.5 379.3Q305.2 388.8 299.1 398.6Q293.0 408.4 283.2 415.1Q273.5 421.8 261.8 423.0Q250.0 424.2 238.9 419.8Q227.7 415.3 219.1 407.5Q210.5 399.8 204.3 391.7Q198.0 383.6 192.6 377.2Q187.2 370.9 181.1 366.2Q174.9 361.5 168.0 357.3Q161.1 353.0 154.7 347.7Q148.4 342.4 144.2 335.9Q140.0 329.3 138.2 322.0Q136.3 314.8 135.7 307.4Q135.0 300.0 133.9 292.4Q132.7 284.8 130.8 276.2Q128.9 267.7 127.7 258.1Q126.6 248.4 128.8 238.8Q131.1 229.1 138.3 221.7Q145.5 214.3 157.0 211.1Q168.5 208.0 181.4 209.3Q194.4 210.6 206.0 214.3Q217.6 218.1 226.5 221.2Q235.4 224.2 242.7 224.2Q250.0 224.1 257.9 220.9Q265.9 217.7 275.9 213.6Q285.9 209.5 297.3 207.4Q308.8 205.3 319.7 207.2Q330.6 209.0 339.1 214.5Q347.5 220.1 353.0 227.7Q358.5 235.4 362.2 243.5Q365.8 251.6 368.9 259.5Q372.0 267.5 374.7 275.5Q377.3 283.5 378.2 291.7Z"></path><path d="M398.5 300.0Q398.5 300.0 395.4 309.2Q392.2 318.5 384.6 326.1Q376.9 333.8 366.9 339.2Q356.8 344.6 347.7 348.7Q338.6 352.8 332.7 357.9Q326.8 363.0 323.5 371.1Q320.3 379.3 316.8 390.6Q313.3 401.9 306.5 413.6Q299.7 425.4 288.5 433.4Q277.3 441.4 263.7 442.8Q250.0 444.2 237.1 438.9Q224.2 433.5 214.4 424.2Q204.5 414.8 197.6 405.2Q190.6 395.6 184.6 388.1Q178.6 380.6 171.6 375.3Q164.7 370.0 156.7 365.2Q148.7 360.4 141.3 354.4Q133.9 348.5 129.1 341.0Q124.2 333.5 122.1 325.2Q120.1 316.9 119.3 308.4Q118.5 300.0 117.1 291.3Q115.7 282.6 113.2 272.7Q110.6 262.9 109.0 251.6Q107.3 240.4 109.7 229.1Q112.1 217.8 120.4 209.2Q128.8 200.6 142.2 197.1Q155.7 193.6 171.0 195.5Q186.2 197.4 199.7 202.2Q213.1 207.0 223.3 210.8Q233.5 214.7 241.8 214.7Q250.0 214.6 259.0 210.7Q268.0 206.7 279.5 201.6Q291.0 196.5 304.4 193.7Q317.7 191.0 330.5 192.9Q343.2 194.8 352.9 201.2Q362.7 207.6 368.9 216.5Q375.2 225.4 379.3 234.8Q383.4 244.3 386.9 253.4Q390.5 262.6 393.5 271.8Q396.6 281.0 397.6 290.5Z"></path><path d="M418.2 300.0Q418.2 300.0 414.5 310.4Q410.8 320.9 401.8 329.5Q392.8 338.1 381.1 344.0Q369.4 349.9 358.9 354.2Q348.4 358.6 341.8 364.2Q335.2 369.8 331.9 379.2Q328.5 388.6 325.0 401.8Q321.5 415.0 314.0 428.8Q306.5 442.5 293.8 452.0Q281.2 461.5 265.6 463.1Q250.0 464.7 235.3 458.4Q220.6 452.0 209.6 441.0Q198.5 429.9 190.9 418.7Q183.3 407.4 176.7 398.8Q170.1 390.1 162.4 384.2Q154.6 378.2 145.5 372.9Q136.4 367.7 128.0 361.1Q119.6 354.5 114.0 346.1Q108.5 337.7 106.2 328.3Q103.9 319.0 103.1 309.5Q102.2 300.0 100.4 290.2Q98.7 280.3 95.5 269.2Q92.3 258.0 90.1 245.1Q87.8 232.2 90.3 219.3Q92.7 206.3 102.2 196.5Q111.7 186.6 127.3 182.8Q142.8 179.0 160.4 181.6Q178.0 184.1 193.4 190.1Q208.8 196.1 220.3 200.8Q231.8 205.6 240.9 205.6Q250.0 205.6 260.0 200.9Q270.1 196.1 283.1 189.8Q296.2 183.5 311.4 180.0Q326.7 176.5 341.3 178.5Q355.9 180.5 367.0 187.7Q378.1 195.0 385.1 205.2Q392.1 215.3 396.6 226.1Q401.1 236.9 405.1 247.2Q409.0 257.6 412.5 268.0Q416.0 278.4 417.1 289.2Z"></path><path d="M438.0 300.0Q438.0 300.0 433.7 311.6Q429.4 323.3 419.0 332.8Q408.6 342.3 395.1 348.6Q381.6 355.0 369.7 359.6Q357.7 364.2 350.5 370.3Q343.2 376.4 339.9 387.1Q336.6 397.7 333.1 412.9Q329.6 428.1 321.5 444.0Q313.4 460.0 299.3 471.0Q285.1 482.0 267.6 483.8Q250.0 485.7 233.5 478.3Q217.0 470.8 204.7 458.0Q192.5 445.2 184.2 432.2Q176.0 419.1 168.9 409.3Q161.8 399.5 153.3 392.9Q144.8 386.3 134.6 380.6Q124.4 374.8 114.9 367.6Q105.4 360.4 99.1 351.1Q92.9 341.9 90.4 331.5Q87.9 321.1 87.0 310.5Q86.0 300.0 83.9 289.1Q81.7 278.1 77.8 265.6Q73.9 253.1 70.9 238.5Q68.0 224.0 70.5 209.2Q73.0 194.5 83.6 183.4Q94.3 172.3 112.0 168.3Q129.7 164.2 149.7 167.6Q169.8 170.9 187.2 178.2Q204.6 185.5 217.3 191.2Q230.1 196.9 240.0 197.0Q250.0 197.0 261.0 191.4Q272.1 185.7 286.7 178.2Q301.3 170.7 318.5 166.3Q335.8 162.0 352.3 164.0Q368.7 166.0 381.2 174.1Q393.7 182.2 401.4 193.7Q409.2 205.2 414.1 217.3Q419.0 229.4 423.3 241.0Q427.7 252.7 431.6 264.3Q435.6 275.9 436.8 287.9Z"></path><path d="M594.3 240.0Q594.3 240.0 593.7 242.1Q593.1 244.3 592.3 246.3Q591.5 248.4 590.5 250.4Q589.5 252.3 588.2 254.2Q586.8 256.0 584.9 257.4Q583.0 258.9 580.7 259.8Q578.3 260.7 575.8 261.0Q573.3 261.3 570.9 261.5Q568.5 261.6 566.4 261.9Q564.3 262.2 562.1 262.9Q560.0 263.6 557.5 264.7Q555.0 265.7 552.1 266.4Q549.2 267.2 546.2 267.1Q543.2 267.1 540.6 265.9Q538.0 264.8 536.3 262.8Q534.6 260.8 533.9 258.4Q533.1 256.0 532.8 253.7Q532.6 251.4 532.4 249.4Q532.2 247.4 531.8 245.6Q531.4 243.7 530.8 241.9Q530.3 240.0 530.1 238.0Q529.9 236.1 530.2 234.1Q530.6 232.2 531.5 230.3Q532.5 228.5 533.8 226.8Q535.0 225.1 536.4 223.5Q537.8 221.8 539.2 220.0Q540.7 218.2 542.5 216.4Q544.2 214.6 546.5 213.1Q548.8 211.6 551.5 211.0Q554.3 210.3 557.1 210.8Q560.0 211.2 562.5 212.5Q565.1 213.8 567.0 215.6Q569.0 217.3 570.6 218.8Q572.2 220.3 573.9 221.3Q575.6 222.4 577.8 223.0Q579.9 223.7 582.4 224.4Q584.9 225.2 587.2 226.4Q589.6 227.6 591.4 229.4Q593.1 231.2 593.8 233.3Q594.6 235.5 594.4 237.8Z"></path><path d="M614.0 240.0Q614.0 240.0 612.9 243.4Q611.9 246.7 610.6 249.9Q609.3 253.1 607.8 256.2Q606.2 259.3 604.1 262.2Q602.0 265.0 599.1 267.3Q596.1 269.6 592.3 270.9Q588.5 272.2 584.5 272.6Q580.5 273.1 576.9 273.1Q573.2 273.2 569.9 273.6Q566.6 274.1 563.3 275.3Q560.0 276.6 556.1 278.3Q552.3 280.1 547.7 281.4Q543.0 282.8 538.2 282.8Q533.4 282.8 529.3 281.0Q525.2 279.3 522.6 276.0Q520.0 272.8 518.9 269.0Q517.8 265.1 517.6 261.5Q517.4 257.8 517.2 254.6Q517.0 251.5 516.3 248.6Q515.7 245.8 514.8 242.9Q514.0 240.0 513.5 237.0Q513.1 233.9 513.7 230.9Q514.2 227.8 515.7 224.9Q517.1 222.1 519.1 219.5Q521.1 216.8 523.2 214.2Q525.4 211.6 527.6 208.7Q529.8 205.9 532.5 202.9Q535.1 200.0 538.7 197.6Q542.3 195.2 546.6 194.2Q550.9 193.1 555.5 193.8Q560.0 194.6 564.0 196.8Q567.9 199.1 570.9 201.9Q573.9 204.8 576.4 207.3Q578.8 209.8 581.4 211.3Q584.0 212.9 587.3 213.9Q590.7 214.8 594.7 215.9Q598.7 216.9 602.6 218.8Q606.5 220.6 609.3 223.4Q612.1 226.1 613.2 229.5Q614.4 232.9 614.2 236.5Z"></path><path d="M633.8 240.0Q633.8 240.0 632.4 244.6Q630.9 249.2 629.1 253.6Q627.2 257.9 625.2 262.1Q623.1 266.4 620.2 270.3Q617.4 274.2 613.2 277.2Q609.1 280.3 603.9 282.0Q598.7 283.7 593.2 284.1Q587.7 284.6 582.7 284.5Q577.6 284.5 573.2 285.1Q568.8 285.6 564.4 287.5Q560.0 289.3 554.7 291.9Q549.5 294.5 543.1 296.5Q536.8 298.6 530.1 298.8Q523.4 298.9 517.7 296.5Q512.1 294.1 508.5 289.6Q505.0 285.1 503.7 279.7Q502.4 274.3 502.3 269.2Q502.2 264.1 502.1 259.8Q502.0 255.5 501.1 251.6Q500.3 247.8 499.1 243.9Q497.8 240.0 497.2 235.9Q496.5 231.8 497.2 227.6Q497.9 223.5 499.9 219.6Q501.9 215.7 504.6 212.2Q507.3 208.6 510.1 205.0Q513.0 201.4 515.9 197.5Q518.8 193.5 522.4 189.3Q526.0 185.2 530.8 181.8Q535.6 178.4 541.6 177.0Q547.5 175.5 553.8 176.6Q560.0 177.7 565.4 181.0Q570.8 184.3 574.8 188.4Q578.8 192.6 582.0 196.1Q585.1 199.6 588.6 201.7Q592.0 203.9 596.6 205.1Q601.2 206.2 606.8 207.5Q612.4 208.8 617.9 211.1Q623.4 213.5 627.4 217.3Q631.3 221.0 633.0 225.7Q634.6 230.3 634.2 235.2Z"></path><path d="M654.0 240.0Q654.0 240.0 652.0 245.8Q650.0 251.7 647.6 257.2Q645.3 262.7 642.7 268.1Q640.0 273.4 636.4 278.4Q632.8 283.4 627.5 287.2Q622.2 291.0 615.5 293.1Q608.9 295.1 601.8 295.5Q594.7 295.9 588.3 295.7Q582.0 295.4 576.5 296.1Q571.0 296.8 565.5 299.2Q560.0 301.7 553.4 305.2Q546.7 308.8 538.6 311.8Q530.4 314.7 521.8 315.1Q513.1 315.4 505.9 312.4Q498.6 309.3 494.2 303.4Q489.8 297.6 488.4 290.6Q486.9 283.5 487.1 277.0Q487.2 270.4 487.2 264.9Q487.3 259.4 486.2 254.5Q485.2 249.7 483.6 244.9Q482.0 240.0 481.0 234.8Q480.1 229.6 480.9 224.4Q481.7 219.1 484.2 214.3Q486.8 209.4 490.2 204.9Q493.6 200.5 497.1 195.9Q500.6 191.3 504.2 186.2Q507.8 181.0 512.2 175.6Q516.6 170.2 522.7 165.8Q528.8 161.3 536.4 159.4Q544.1 157.5 552.0 159.1Q560.0 160.6 566.8 165.1Q573.6 169.5 578.6 175.0Q583.6 180.6 587.4 185.2Q591.2 189.8 595.5 192.5Q599.7 195.2 605.6 196.5Q611.4 197.8 618.7 199.2Q626.1 200.6 633.3 203.5Q640.5 206.4 645.7 211.1Q650.8 215.8 653.0 221.7Q655.1 227.7 654.5 233.8Z"></path><path d="M674.3 240.0Q674.3 240.0 671.8 247.1Q669.3 254.2 666.4 260.9Q663.4 267.6 660.3 274.1Q657.1 280.6 652.7 286.6Q648.3 292.6 641.8 297.2Q635.4 301.8 627.2 304.2Q618.9 306.5 610.3 306.7Q601.6 307.0 593.9 306.5Q586.2 306.0 579.6 306.8Q573.1 307.6 566.5 310.7Q560.0 313.8 552.0 318.5Q543.9 323.1 533.9 327.1Q523.9 331.0 513.3 331.7Q502.6 332.3 493.7 328.6Q484.8 324.9 479.6 317.6Q474.3 310.3 472.8 301.6Q471.3 292.8 471.8 284.7Q472.3 276.6 472.6 269.9Q472.8 263.2 471.6 257.4Q470.4 251.6 468.4 245.8Q466.3 240.0 465.1 233.8Q463.8 227.5 464.7 221.2Q465.6 214.9 468.7 209.0Q471.7 203.1 475.9 197.7Q480.0 192.3 484.2 186.8Q488.3 181.2 492.5 174.9Q496.7 168.5 501.9 161.8Q507.2 155.0 514.5 149.4Q521.9 143.8 531.2 141.5Q540.5 139.1 550.3 141.2Q560.0 143.2 568.2 149.0Q576.5 154.7 582.4 161.7Q588.2 168.8 592.6 174.6Q597.1 180.4 602.1 183.6Q607.1 186.9 614.2 188.3Q621.4 189.7 630.5 191.1Q639.6 192.6 648.6 195.9Q657.6 199.2 664.1 204.9Q670.6 210.5 673.2 217.7Q675.9 225.0 675.1 232.5Z"></path><path d="M694.9 240.0Q694.9 240.0 691.8 248.4Q688.7 256.7 685.2 264.6Q681.7 272.4 678.0 280.1Q674.2 287.7 669.0 294.8Q663.9 301.9 656.2 307.3Q648.6 312.6 638.8 315.2Q629.0 317.8 618.7 317.8Q608.4 317.9 599.3 317.1Q590.2 316.3 582.6 317.1Q575.1 318.0 567.5 321.8Q560.0 325.7 550.6 331.6Q541.2 337.4 529.3 342.5Q517.4 347.5 504.7 348.5Q491.9 349.6 481.3 345.2Q470.7 340.8 464.6 332.0Q458.5 323.2 457.1 312.7Q455.6 302.2 456.6 292.5Q457.5 282.8 458.1 274.9Q458.6 267.0 457.3 260.3Q455.9 253.5 453.4 246.8Q450.9 240.0 449.3 232.7Q447.7 225.4 448.7 218.0Q449.6 210.6 453.2 203.7Q456.8 196.9 461.6 190.6Q466.5 184.3 471.3 177.7Q476.0 171.2 480.8 163.6Q485.5 156.0 491.6 147.8Q497.6 139.6 506.2 132.8Q514.8 126.0 525.9 123.2Q536.9 120.4 548.4 123.0Q560.0 125.6 569.7 132.7Q579.3 139.8 586.1 148.5Q592.8 157.2 597.7 164.3Q602.7 171.3 608.4 175.1Q614.1 178.9 622.6 180.3Q631.1 181.7 642.0 183.2Q653.0 184.6 664.0 188.3Q674.9 192.0 682.8 198.6Q690.7 205.2 693.8 213.7Q696.9 222.2 695.9 231.1Z"></path><path d="M715.7 240.0Q715.7 240.0 712.0 249.6Q708.3 259.3 704.2 268.3Q700.1 277.3 695.8 286.1Q691.5 294.9 685.5 303.1Q679.6 311.2 670.7 317.4Q661.8 323.5 650.4 326.3Q638.9 329.1 627.0 328.8Q615.0 328.5 604.6 327.4Q594.2 326.2 585.6 327.1Q577.0 328.0 568.5 332.6Q560.0 337.3 549.2 344.5Q538.4 351.7 524.6 358.0Q510.8 364.3 495.9 365.7Q480.9 367.2 468.6 362.2Q456.3 357.1 449.4 346.7Q442.5 336.4 441.1 324.0Q439.8 311.6 441.3 300.3Q442.9 288.9 443.8 279.8Q444.7 270.7 443.2 263.0Q441.8 255.4 438.7 247.7Q435.7 240.0 433.7 231.7Q431.7 223.3 432.7 214.9Q433.8 206.4 437.9 198.5Q442.0 190.7 447.5 183.5Q453.1 176.3 458.4 168.7Q463.8 161.1 469.1 152.2Q474.4 143.3 481.1 133.7Q487.9 124.0 497.8 115.9Q507.6 107.8 520.4 104.5Q533.2 101.2 546.6 104.5Q560.0 107.7 571.1 116.3Q582.2 124.9 589.8 135.4Q597.3 145.9 602.7 154.3Q608.1 162.7 614.4 167.0Q620.8 171.3 630.6 172.7Q640.5 174.0 653.4 175.3Q666.3 176.7 679.3 180.7Q692.3 184.7 701.7 192.2Q711.0 199.8 714.7 209.6Q718.3 219.4 717.0 229.7Z"></path><path d="M736.8 240.0Q736.8 240.0 732.4 250.9Q728.0 261.8 723.3 272.0Q718.5 282.2 713.7 292.2Q708.8 302.2 702.1 311.4Q695.4 320.6 685.2 327.5Q675.1 334.4 662.0 337.3Q648.9 340.3 635.2 339.7Q621.5 339.0 609.7 337.4Q597.9 335.8 588.4 336.7Q578.9 337.6 569.4 343.1Q560.0 348.6 547.8 357.3Q535.7 366.0 519.9 373.6Q504.0 381.2 486.9 383.2Q469.8 385.2 455.6 379.5Q441.5 373.7 433.8 361.8Q426.1 349.8 425.0 335.4Q423.9 321.1 426.1 308.1Q428.3 295.0 429.7 284.7Q431.1 274.3 429.5 265.8Q427.9 257.2 424.3 248.6Q420.8 240.0 418.3 230.6Q415.9 221.3 416.9 211.7Q418.0 202.2 422.6 193.4Q427.3 184.5 433.5 176.4Q439.7 168.3 445.7 159.7Q451.6 151.1 457.4 140.9Q463.1 130.7 470.6 119.4Q478.1 108.1 489.2 98.7Q500.3 89.3 514.9 85.5Q529.4 81.7 544.7 85.6Q560.0 89.5 572.6 99.8Q585.1 110.0 593.4 122.4Q601.7 134.8 607.4 144.6Q613.2 154.4 620.2 159.2Q627.2 164.1 638.4 165.3Q649.6 166.6 664.5 167.7Q679.5 168.8 694.7 173.1Q709.9 177.4 720.7 185.8Q731.6 194.3 735.8 205.4Q740.0 216.6 738.4 228.3Z"></path><path d="M758.1 240.0Q758.1 240.0 753.0 252.2Q747.9 264.4 742.5 275.8Q737.1 287.2 731.7 298.3Q726.3 309.5 718.8 319.8Q711.3 330.1 699.8 337.7Q688.4 345.3 673.6 348.4Q658.7 351.4 643.3 350.4Q627.9 349.3 614.7 347.1Q601.6 345.0 591.1 345.9Q580.6 346.9 570.3 353.3Q560.0 359.7 546.5 370.0Q532.9 380.2 515.1 389.3Q497.2 398.4 477.8 401.0Q458.3 403.6 442.4 397.2Q426.4 390.8 418.0 377.1Q409.5 363.4 408.7 347.0Q407.8 330.7 410.8 315.9Q413.9 301.1 415.8 289.5Q417.7 277.9 416.0 268.4Q414.3 258.9 410.2 249.5Q406.1 240.0 403.1 229.6Q400.2 219.2 401.3 208.6Q402.3 198.0 407.5 188.2Q412.6 178.4 419.6 169.4Q426.5 160.5 433.0 150.8Q439.5 141.2 445.7 129.6Q451.8 117.9 460.0 105.0Q468.1 92.1 480.5 81.3Q492.8 70.4 509.2 66.1Q525.6 61.8 542.8 66.4Q560.0 71.1 574.0 83.1Q588.0 95.1 597.0 109.5Q606.0 123.9 612.1 135.2Q618.1 146.4 625.7 151.9Q633.3 157.3 645.9 158.3Q658.4 159.3 675.5 160.2Q692.6 161.0 710.1 165.5Q727.5 170.0 740.0 179.4Q752.5 188.7 757.2 201.2Q762.0 213.8 760.0 226.9Z"></path><path d="M463.2 600.0Q463.2 600.0 462.9 602.1Q462.7 604.2 462.2 606.3Q461.6 608.4 460.5 610.3Q459.3 612.2 457.5 613.7Q455.6 615.3 453.3 616.3Q451.0 617.3 448.7 617.9Q446.4 618.6 444.4 619.2Q442.4 619.9 440.5 621.0Q438.7 622.0 436.8 623.5Q434.8 624.9 432.4 626.4Q430.0 627.9 427.1 628.8Q424.3 629.6 421.3 629.4Q418.4 629.2 415.9 627.9Q413.5 626.6 411.7 624.6Q410.0 622.6 408.9 620.4Q407.8 618.2 406.9 616.2Q406.1 614.2 405.1 612.5Q404.2 610.8 403.1 609.1Q402.0 607.5 401.0 605.7Q400.1 603.9 399.6 601.9Q399.2 600.0 399.3 598.0Q399.5 596.0 400.1 594.1Q400.7 592.2 401.5 590.3Q402.3 588.4 403.1 586.4Q403.8 584.4 404.8 582.3Q405.8 580.1 407.3 578.1Q408.8 576.1 411.1 574.6Q413.3 573.1 416.1 572.6Q418.9 572.1 421.9 572.6Q424.8 573.1 427.4 574.3Q430.0 575.4 432.1 576.6Q434.3 577.8 436.2 578.6Q438.2 579.3 440.3 579.6Q442.5 579.9 445.1 580.0Q447.6 580.1 450.3 580.6Q453.1 581.1 455.5 582.2Q457.9 583.4 459.5 585.2Q461.2 587.0 462.0 589.1Q462.8 591.3 463.1 593.5Q463.3 595.7 463.2 597.8Z"></path><path d="M482.0 600.0Q482.0 600.0 481.6 603.3Q481.3 606.7 480.4 609.9Q479.6 613.2 477.7 616.2Q475.9 619.2 472.9 621.5Q470.0 623.8 466.3 625.3Q462.7 626.8 459.0 627.7Q455.3 628.6 452.2 629.6Q449.0 630.6 446.2 632.3Q443.5 634.0 440.5 636.4Q437.5 638.8 433.7 641.3Q430.0 643.8 425.5 645.3Q421.0 646.8 416.3 646.6Q411.7 646.3 407.8 644.2Q403.9 642.1 401.2 638.8Q398.6 635.5 397.0 631.9Q395.4 628.4 394.1 625.2Q392.9 622.1 391.5 619.4Q390.0 616.7 388.3 614.1Q386.5 611.6 385.0 608.8Q383.5 606.0 382.7 603.0Q382.0 600.0 382.2 596.9Q382.5 593.8 383.5 590.8Q384.5 587.9 385.6 584.9Q386.8 581.9 387.9 578.8Q389.1 575.6 390.5 572.2Q391.9 568.8 394.3 565.5Q396.6 562.3 400.1 559.9Q403.6 557.5 408.1 556.8Q412.6 556.0 417.2 556.9Q421.9 557.8 425.9 559.8Q430.0 561.8 433.3 563.8Q436.6 565.8 439.6 567.1Q442.6 568.3 445.9 568.7Q449.3 569.0 453.3 569.1Q457.3 569.2 461.7 569.8Q466.1 570.4 469.9 572.2Q473.8 573.9 476.5 576.7Q479.1 579.5 480.4 582.9Q481.6 586.2 481.9 589.7Q482.2 593.2 482.1 596.6Z"></path><path d="M500.9 600.0Q500.9 600.0 500.4 604.5Q500.0 609.1 498.8 613.6Q497.6 618.0 495.1 622.1Q492.6 626.1 488.4 629.2Q484.3 632.4 479.2 634.3Q474.1 636.2 469.1 637.3Q464.0 638.4 459.7 639.7Q455.4 641.0 451.8 643.3Q448.1 645.6 444.1 649.1Q440.2 652.6 435.1 656.3Q430.0 659.9 423.8 662.1Q417.6 664.4 411.1 664.1Q404.7 663.8 399.4 660.8Q394.1 657.9 390.5 653.2Q387.0 648.5 385.0 643.5Q383.0 638.6 381.5 634.2Q380.0 629.8 378.1 626.2Q376.1 622.5 373.8 619.1Q371.4 615.6 369.2 611.9Q367.0 608.2 366.0 604.1Q364.9 600.0 365.3 595.8Q365.6 591.6 367.0 587.6Q368.3 583.6 369.8 579.5Q371.4 575.5 372.8 571.2Q374.3 566.8 376.1 562.1Q377.9 557.3 381.0 552.7Q384.1 548.2 388.9 544.9Q393.7 541.6 399.9 540.6Q406.1 539.6 412.5 541.0Q418.9 542.5 424.4 545.4Q430.0 548.4 434.4 551.3Q438.8 554.2 442.8 556.0Q446.8 557.7 451.3 558.1Q455.8 558.5 461.4 558.4Q466.9 558.3 473.0 559.0Q479.1 559.7 484.6 562.0Q490.0 564.3 493.7 568.1Q497.3 571.9 499.0 576.5Q500.7 581.2 501.0 585.9Q501.4 590.7 501.1 595.4Z"></path><path d="M520.0 600.0Q520.0 600.0 519.4 605.8Q518.7 611.5 517.3 617.2Q515.8 622.9 512.6 628.0Q509.3 633.1 504.0 637.0Q498.6 640.9 492.0 643.2Q485.4 645.4 478.9 646.7Q472.4 647.9 467.0 649.4Q461.7 650.9 457.1 654.0Q452.6 657.0 447.7 661.7Q442.8 666.3 436.4 671.2Q430.0 676.1 422.0 679.2Q414.1 682.3 405.9 682.0Q397.6 681.7 390.8 677.8Q384.0 674.0 379.7 667.8Q375.3 661.7 373.0 655.2Q370.6 648.7 368.9 643.0Q367.2 637.4 364.9 632.8Q362.5 628.2 359.5 623.9Q356.4 619.6 353.6 614.9Q350.8 610.3 349.4 605.1Q348.0 600.0 348.4 594.7Q348.9 589.5 350.5 584.4Q352.2 579.3 354.1 574.2Q356.1 569.1 357.8 563.5Q359.5 558.0 361.6 551.8Q363.8 545.7 367.6 539.7Q371.3 533.8 377.5 529.5Q383.6 525.3 391.5 524.1Q399.4 522.9 407.7 524.9Q415.9 527.0 422.9 531.0Q430.0 535.1 435.5 539.1Q441.0 543.0 445.9 545.3Q450.8 547.6 456.4 547.9Q462.1 548.3 469.3 547.9Q476.4 547.6 484.3 548.3Q492.3 548.9 499.3 551.7Q506.3 554.5 511.1 559.3Q515.8 564.2 517.9 570.1Q520.0 576.0 520.3 582.1Q520.7 588.2 520.3 594.1Z"></path><path d="M539.1 600.0Q539.1 600.0 538.4 607.0Q537.6 614.0 535.9 620.9Q534.1 627.7 530.1 634.0Q526.1 640.2 519.5 644.8Q512.9 649.4 504.7 652.0Q496.5 654.6 488.6 655.8Q480.6 657.1 474.1 658.9Q467.6 660.6 462.3 664.3Q457.0 668.1 451.2 674.0Q445.4 679.9 437.7 686.2Q430.0 692.6 420.3 696.6Q410.6 700.7 400.4 700.4Q390.3 700.1 382.1 695.2Q373.8 690.4 368.7 682.7Q363.5 675.0 360.9 666.9Q358.3 658.8 356.5 651.8Q354.6 644.9 351.9 639.3Q349.2 633.8 345.5 628.6Q341.7 623.5 338.2 617.9Q334.7 612.4 332.9 606.2Q331.1 600.0 331.7 593.6Q332.2 587.3 334.3 581.2Q336.3 575.0 338.6 568.9Q340.8 562.7 342.7 555.9Q344.6 549.1 347.0 541.5Q349.5 533.9 353.9 526.5Q358.4 519.1 365.8 513.9Q373.2 508.6 383.0 507.2Q392.7 505.9 402.8 508.6Q412.9 511.4 421.4 516.7Q430.0 522.0 436.5 527.1Q443.1 532.2 448.9 535.0Q454.6 537.9 461.4 538.2Q468.3 538.4 477.0 537.7Q485.8 537.0 495.6 537.6Q505.4 538.2 514.2 541.4Q522.9 544.6 528.7 550.5Q534.5 556.3 537.1 563.6Q539.6 570.8 539.8 578.3Q540.1 585.7 539.6 592.8Z"></path><path d="M558.4 600.0Q558.4 600.0 557.5 608.2Q556.7 616.4 554.6 624.6Q552.5 632.7 547.8 639.9Q543.0 647.2 535.1 652.6Q527.2 657.9 517.3 660.7Q507.5 663.5 498.0 664.8Q488.6 666.1 481.0 668.0Q473.4 669.9 467.3 674.3Q461.2 678.8 454.6 686.1Q448.0 693.4 439.0 701.3Q430.0 709.2 418.5 714.3Q406.9 719.4 394.9 719.1Q382.9 718.9 373.1 713.0Q363.4 707.2 357.5 697.8Q351.6 688.5 348.8 678.6Q346.1 668.8 344.2 660.5Q342.3 652.3 339.2 645.7Q336.2 639.2 331.7 633.3Q327.3 627.4 323.0 620.9Q318.8 614.4 316.6 607.2Q314.4 600.0 315.0 592.6Q315.7 585.2 318.1 578.0Q320.5 570.8 323.1 563.6Q325.6 556.4 327.7 548.3Q329.8 540.3 332.4 531.2Q335.0 522.1 340.0 513.1Q345.1 504.2 353.9 497.9Q362.6 491.6 374.2 490.1Q385.8 488.6 397.9 492.2Q409.9 495.8 419.9 502.4Q430.0 509.1 437.6 515.4Q445.1 521.8 451.7 525.2Q458.3 528.6 466.2 528.8Q474.2 528.9 484.6 527.8Q495.0 526.6 506.8 527.0Q518.6 527.3 529.1 531.0Q539.7 534.7 546.6 541.5Q553.6 548.4 556.5 557.0Q559.4 565.5 559.6 574.3Q559.8 583.1 559.1 591.6Z"></path><path d="M577.8 600.0Q577.8 600.0 576.8 609.5Q575.8 618.9 573.4 628.3Q571.1 637.6 565.6 646.0Q560.0 654.3 550.7 660.4Q541.4 666.4 529.9 669.4Q518.3 672.4 507.3 673.6Q496.2 674.8 487.6 676.8Q479.0 678.8 472.2 684.0Q465.4 689.3 458.0 698.0Q450.6 706.8 440.3 716.3Q430.0 725.9 416.6 732.2Q403.3 738.5 389.3 738.3Q375.3 738.1 364.0 731.2Q352.8 724.3 346.2 713.2Q339.6 702.1 336.7 690.5Q333.9 678.8 332.0 669.2Q330.1 659.5 326.8 652.0Q323.4 644.5 318.2 637.8Q313.1 631.1 308.1 623.8Q303.0 616.5 300.4 608.2Q297.8 600.0 298.5 591.5Q299.2 583.0 302.0 574.8Q304.8 566.6 307.7 558.4Q310.6 550.1 312.7 540.8Q314.9 531.4 317.6 520.7Q320.3 510.1 326.0 499.5Q331.7 489.0 341.8 481.6Q351.8 474.2 365.3 472.6Q378.9 470.9 392.8 475.5Q406.8 480.0 418.4 488.2Q430.0 496.3 438.5 504.0Q447.1 511.7 454.4 515.7Q461.8 519.8 470.8 519.7Q479.9 519.7 492.0 518.0Q504.1 516.3 518.0 516.4Q531.9 516.5 544.2 520.5Q556.6 524.6 564.8 532.4Q572.9 540.3 576.1 550.3Q579.4 560.2 579.5 570.4Q579.6 580.6 578.7 590.3Z"></path><path d="M597.4 600.0Q597.4 600.0 596.2 610.7Q595.0 621.4 592.4 632.0Q589.8 642.6 583.4 652.0Q577.1 661.5 566.4 668.1Q555.6 674.8 542.3 678.0Q528.9 681.1 516.3 682.2Q503.7 683.2 494.0 685.3Q484.3 687.4 476.8 693.4Q469.4 699.5 461.3 709.8Q453.2 720.0 441.6 731.4Q430.0 742.8 414.7 750.4Q399.5 758.0 383.5 757.9Q367.5 757.8 354.7 749.8Q341.9 741.7 334.7 728.8Q327.4 715.8 324.5 702.3Q321.7 688.8 319.9 677.7Q318.2 666.6 314.5 658.2Q310.9 649.8 305.0 642.3Q299.1 634.9 293.3 626.7Q287.4 618.5 284.4 609.3Q281.4 600.0 282.1 590.4Q282.9 580.9 286.1 571.7Q289.2 562.5 292.4 553.2Q295.6 543.8 297.8 533.2Q300.0 522.5 302.7 510.2Q305.5 497.9 311.7 485.7Q318.0 473.5 329.4 465.0Q340.8 456.5 356.3 454.8Q371.8 453.0 387.8 458.6Q403.8 464.1 416.9 473.9Q430.0 483.7 439.5 492.9Q448.9 502.0 457.0 506.7Q465.1 511.4 475.3 511.1Q485.4 510.8 499.3 508.5Q513.1 506.2 529.1 505.9Q545.1 505.6 559.5 510.0Q573.8 514.3 583.1 523.2Q592.4 532.1 596.1 543.5Q599.7 554.8 599.6 566.4Q599.6 578.0 598.5 589.0Z"></path><path d="M617.0 600.0Q617.0 600.0 615.7 612.0Q614.4 623.9 611.5 635.8Q608.6 647.6 601.4 658.1Q594.3 668.6 582.0 676.0Q569.8 683.3 554.6 686.5Q539.4 689.7 525.2 690.5Q510.9 691.3 500.1 693.4Q489.4 695.6 481.4 702.4Q473.3 709.3 464.5 721.3Q455.7 733.2 442.9 746.6Q430.0 759.9 412.8 768.9Q395.7 777.8 377.6 777.9Q359.5 777.9 345.2 768.7Q330.9 759.5 323.0 744.6Q315.1 729.7 312.3 714.2Q309.6 698.8 308.0 686.2Q306.4 673.6 302.5 664.3Q298.7 654.9 292.1 646.7Q285.4 638.5 278.7 629.5Q272.0 620.5 268.5 610.3Q265.0 600.0 265.9 589.4Q266.7 578.8 270.3 568.6Q273.8 558.4 277.2 548.0Q280.6 537.6 282.8 525.6Q285.0 513.6 287.8 499.6Q290.5 485.6 297.3 471.7Q304.0 457.8 316.8 448.1Q329.6 438.4 347.1 436.6Q364.5 434.8 382.6 441.5Q400.7 448.1 415.3 459.7Q430.0 471.3 440.4 482.0Q450.7 492.7 459.5 498.1Q468.3 503.4 479.5 502.9Q490.7 502.3 506.3 499.2Q522.0 496.2 540.2 495.4Q558.5 494.7 574.8 499.3Q591.2 504.0 601.7 513.9Q612.3 523.8 616.3 536.6Q620.2 549.3 620.0 562.3Q619.7 575.4 618.4 587.7Z"></path><path d="M185.0 650.0Q185.0 650.0 184.7 652.2Q184.5 654.5 183.5 656.6Q182.4 658.6 181.1 660.5Q179.7 662.4 178.2 664.2Q176.7 665.9 175.1 667.6Q173.4 669.2 171.4 670.6Q169.4 671.9 167.0 672.7Q164.6 673.6 162.1 673.7Q159.5 673.9 157.0 673.6Q154.5 673.3 152.2 672.9Q150.0 672.5 147.8 672.4Q145.7 672.4 143.3 672.7Q140.9 673.1 138.0 673.4Q135.2 673.8 132.1 673.7Q129.1 673.6 126.3 672.7Q123.6 671.7 121.8 669.8Q119.9 667.9 119.3 665.5Q118.6 663.1 118.9 660.7Q119.1 658.2 119.7 656.1Q120.2 653.9 120.6 651.9Q121.0 650.0 121.1 648.1Q121.3 646.3 121.4 644.3Q121.6 642.4 122.1 640.5Q122.7 638.6 123.8 636.8Q124.9 635.1 126.5 633.6Q128.2 632.1 130.0 630.8Q131.8 629.5 133.7 628.1Q135.6 626.8 137.6 625.4Q139.7 624.0 142.1 622.7Q144.5 621.4 147.2 620.7Q150.0 620.0 152.8 620.3Q155.7 620.5 158.2 621.8Q160.6 623.1 162.4 625.1Q164.2 627.1 165.5 629.1Q166.7 631.2 167.8 632.9Q168.8 634.6 170.3 635.8Q171.7 637.1 173.7 638.2Q175.7 639.3 177.8 640.6Q180.0 642.0 181.7 643.8Q183.4 645.7 184.2 647.8Z"></path><path d="M205.1 650.0Q205.1 650.0 204.7 653.5Q204.3 657.1 202.6 660.3Q201.0 663.6 198.8 666.5Q196.5 669.4 194.2 672.2Q191.9 674.9 189.3 677.5Q186.7 680.1 183.5 682.2Q180.4 684.3 176.7 685.6Q172.9 686.8 168.8 687.0Q164.7 687.2 160.8 686.6Q156.9 686.0 153.5 685.3Q150.0 684.6 146.7 684.5Q143.3 684.5 139.6 685.1Q135.8 685.8 131.3 686.5Q126.8 687.3 121.9 687.3Q117.0 687.3 112.6 685.8Q108.2 684.3 105.3 681.3Q102.4 678.3 101.5 674.5Q100.6 670.7 101.1 666.8Q101.7 662.9 102.7 659.4Q103.7 656.0 104.4 653.0Q105.1 650.0 105.3 647.1Q105.5 644.2 105.7 641.2Q105.9 638.2 106.7 635.2Q107.4 632.2 109.2 629.5Q111.0 626.7 113.5 624.4Q116.0 622.1 118.8 620.0Q121.6 618.0 124.6 615.9Q127.5 613.8 130.7 611.5Q133.8 609.2 137.6 607.1Q141.3 605.0 145.7 603.8Q150.0 602.6 154.5 603.0Q159.0 603.5 162.9 605.6Q166.7 607.8 169.5 611.0Q172.2 614.2 174.0 617.6Q175.7 620.9 177.3 623.6Q178.9 626.3 181.1 628.2Q183.3 630.1 186.5 631.8Q189.7 633.4 193.2 635.5Q196.8 637.5 199.6 640.4Q202.5 643.2 203.8 646.6Z"></path><path d="M225.6 650.0Q225.6 650.0 225.0 654.8Q224.4 659.7 222.0 664.1Q219.7 668.6 216.6 672.6Q213.5 676.5 210.3 680.3Q207.1 684.0 203.6 687.5Q200.0 691.0 195.8 693.9Q191.5 696.8 186.3 698.5Q181.1 700.1 175.5 700.2Q169.9 700.3 164.6 699.4Q159.3 698.4 154.7 697.4Q150.0 696.3 145.5 696.3Q141.1 696.2 136.0 697.2Q130.9 698.3 124.6 699.5Q118.4 700.8 111.5 701.0Q104.7 701.2 98.5 699.2Q92.4 697.2 88.5 693.1Q84.5 689.0 83.4 683.7Q82.2 678.3 83.2 672.9Q84.2 667.5 85.8 662.8Q87.4 658.1 88.5 654.1Q89.6 650.0 89.8 646.1Q90.1 642.2 90.2 638.2Q90.3 634.1 91.4 630.0Q92.4 625.9 94.7 622.2Q97.1 618.5 100.5 615.3Q103.9 612.2 107.7 609.4Q111.5 606.6 115.5 603.7Q119.4 600.8 123.7 597.5Q127.9 594.3 133.0 591.3Q138.1 588.2 144.0 586.5Q150.0 584.8 156.2 585.4Q162.4 586.0 167.6 589.1Q172.9 592.2 176.5 596.8Q180.2 601.5 182.4 606.2Q184.6 610.9 186.6 614.7Q188.6 618.4 191.6 620.9Q194.6 623.5 199.0 625.6Q203.4 627.7 208.5 630.4Q213.5 633.1 217.6 636.9Q221.8 640.7 223.7 645.3Z"></path><path d="M246.3 650.0Q246.3 650.0 245.5 656.2Q244.8 662.3 241.7 668.0Q238.6 673.6 234.6 678.7Q230.6 683.7 226.5 688.4Q222.4 693.1 217.9 697.6Q213.5 702.0 208.0 705.7Q202.6 709.4 196.0 711.4Q189.4 713.4 182.3 713.4Q175.1 713.4 168.4 712.0Q161.7 710.5 155.8 709.1Q150.0 707.7 144.4 707.6Q138.9 707.6 132.4 709.1Q126.0 710.6 118.0 712.5Q110.0 714.4 101.1 714.8Q92.1 715.3 84.2 712.9Q76.2 710.5 71.2 705.2Q66.2 699.9 64.9 693.0Q63.6 686.1 65.1 679.2Q66.6 672.2 69.0 666.2Q71.3 660.2 72.8 655.1Q74.3 650.0 74.6 645.1Q74.9 640.2 75.0 635.1Q75.0 630.0 76.2 624.8Q77.4 619.7 80.3 614.9Q83.2 610.2 87.5 606.3Q91.9 602.3 96.7 598.8Q101.5 595.3 106.4 591.5Q111.3 587.8 116.7 583.5Q122.0 579.3 128.4 575.3Q134.8 571.2 142.4 568.9Q150.0 566.7 157.9 567.5Q165.8 568.3 172.5 572.3Q179.2 576.4 183.6 582.6Q188.1 588.7 190.7 595.0Q193.2 601.2 195.5 606.0Q197.8 610.8 201.6 613.9Q205.3 617.0 211.1 619.6Q216.8 622.1 223.5 625.4Q230.2 628.6 235.7 633.4Q241.2 638.2 243.7 644.1Z"></path><path d="M267.4 650.0Q267.4 650.0 266.4 657.5Q265.5 665.0 261.6 671.9Q257.8 678.7 252.8 684.8Q247.9 690.9 242.8 696.6Q237.8 702.3 232.4 707.7Q227.0 713.1 220.4 717.6Q213.8 722.0 205.7 724.4Q197.7 726.8 189.0 726.6Q180.3 726.4 172.1 724.4Q164.0 722.4 157.0 720.5Q150.0 718.7 143.4 718.6Q136.8 718.6 129.0 720.6Q121.2 722.7 111.4 725.3Q101.5 728.0 90.5 728.8Q79.4 729.7 69.5 726.9Q59.7 724.1 53.5 717.6Q47.4 711.1 46.0 702.6Q44.7 694.0 46.8 685.5Q49.0 676.9 52.2 669.6Q55.4 662.3 57.4 656.1Q59.4 650.0 59.7 644.2Q60.0 638.3 60.0 632.2Q59.9 626.0 61.2 619.7Q62.5 613.5 66.0 607.8Q69.5 602.0 74.7 597.3Q79.9 592.5 85.7 588.3Q91.5 584.0 97.4 579.4Q103.3 574.8 109.6 569.5Q116.0 564.2 123.7 559.1Q131.5 554.0 140.7 551.0Q150.0 548.1 159.6 549.1Q169.3 550.1 177.4 555.3Q185.5 560.5 190.7 568.3Q196.0 576.0 198.8 583.9Q201.7 591.7 204.2 597.6Q206.7 603.5 211.2 607.2Q215.7 610.9 222.8 613.7Q230.0 616.6 238.4 620.4Q246.8 624.2 253.8 629.9Q260.8 635.6 264.1 642.8Z"></path><path d="M288.7 650.0Q288.7 650.0 287.6 658.9Q286.5 667.7 281.8 675.8Q277.1 683.9 271.2 691.0Q265.2 698.1 259.2 704.8Q253.3 711.5 246.9 717.9Q240.6 724.3 232.8 729.5Q225.1 734.7 215.5 737.4Q206.0 740.1 195.7 739.7Q185.3 739.2 175.8 736.6Q166.2 734.0 158.1 731.6Q150.0 729.3 142.4 729.2Q134.7 729.2 125.6 731.9Q116.5 734.6 104.8 738.1Q93.0 741.7 79.7 743.0Q66.4 744.3 54.6 741.1Q42.7 738.0 35.5 730.3Q28.2 722.6 26.8 712.3Q25.4 702.0 28.4 691.8Q31.4 681.6 35.5 673.0Q39.6 664.3 42.2 657.2Q44.7 650.0 45.1 643.2Q45.5 636.4 45.3 629.2Q45.0 622.0 46.4 614.7Q47.8 607.3 51.8 600.6Q55.9 593.9 62.0 588.4Q68.1 582.8 74.8 577.8Q81.6 572.8 88.4 567.3Q95.2 561.8 102.6 555.4Q109.9 548.9 119.0 542.7Q128.1 536.4 139.0 532.8Q150.0 529.2 161.4 530.4Q172.9 531.6 182.4 537.9Q191.9 544.3 197.8 553.9Q203.8 563.4 206.8 572.9Q209.9 582.4 212.6 589.5Q215.2 596.5 220.4 600.7Q225.6 605.0 234.2 608.1Q242.8 611.2 253.1 615.5Q263.4 619.8 272.0 626.4Q280.6 633.0 284.7 641.5Z"></path><path d="M310.4 650.0Q310.4 650.0 309.1 660.2Q307.7 670.5 302.2 679.8Q296.7 689.1 289.7 697.3Q282.7 705.4 275.8 713.1Q268.8 720.8 261.5 728.1Q254.3 735.5 245.3 741.5Q236.4 747.5 225.3 750.5Q214.3 753.5 202.3 752.7Q190.4 751.9 179.4 748.7Q168.4 745.4 159.2 742.4Q150.0 739.5 141.4 739.5Q132.7 739.5 122.3 742.9Q111.8 746.3 98.2 750.8Q84.5 755.4 68.9 757.3Q53.3 759.2 39.3 755.7Q25.4 752.2 17.0 743.2Q8.6 734.3 7.2 722.2Q5.9 710.2 9.8 698.3Q13.7 686.3 18.9 676.3Q24.1 666.4 27.2 658.2Q30.4 650.0 30.8 642.3Q31.2 634.6 30.8 626.3Q30.4 618.1 31.8 609.7Q33.2 601.2 37.7 593.5Q42.3 585.8 49.3 579.5Q56.3 573.1 64.0 567.4Q71.8 561.7 79.5 555.3Q87.2 548.9 95.5 541.2Q103.9 533.6 114.2 526.1Q124.6 518.6 137.3 514.2Q150.0 509.9 163.3 511.3Q176.5 512.7 187.4 520.3Q198.4 528.0 205.0 539.4Q211.6 550.8 214.7 562.1Q217.8 573.4 220.6 581.6Q223.4 589.8 229.2 594.6Q235.1 599.3 245.2 602.6Q255.4 606.0 267.7 610.7Q280.0 615.4 290.3 622.9Q300.6 630.4 305.5 640.2Z"></path><path d="M332.3 650.0Q332.3 650.0 330.8 661.6Q329.3 673.3 322.9 683.8Q316.4 694.3 308.3 703.6Q300.3 712.8 292.4 721.4Q284.5 730.1 276.2 738.4Q268.0 746.8 257.9 753.5Q247.7 760.3 235.2 763.6Q222.6 766.9 209.0 765.7Q195.4 764.6 183.0 760.5Q170.6 756.4 160.3 752.9Q150.0 749.3 140.4 749.3Q130.8 749.4 119.0 753.6Q107.3 757.9 91.6 763.5Q76.0 769.1 57.9 771.7Q39.9 774.3 23.8 770.5Q7.6 766.7 -1.9 756.5Q-11.5 746.2 -12.7 732.3Q-13.9 718.5 -9.0 704.8Q-4.0 691.0 2.3 679.7Q8.7 668.4 12.5 659.2Q16.3 650.0 16.8 641.4Q17.2 632.8 16.5 623.5Q15.9 614.3 17.3 604.7Q18.7 595.1 23.8 586.5Q28.8 577.8 36.7 570.7Q44.6 563.5 53.3 557.1Q62.0 550.7 70.6 543.3Q79.1 536.0 88.4 527.1Q97.7 518.1 109.4 509.3Q121.1 500.5 135.6 495.3Q150.0 490.2 165.1 491.8Q180.2 493.5 192.6 502.4Q204.9 511.4 212.2 524.8Q219.4 538.2 222.5 551.5Q225.6 564.7 228.4 574.1Q231.1 583.5 237.6 588.7Q244.2 593.9 255.9 597.4Q267.7 600.8 282.1 605.9Q296.5 611.0 308.7 619.4Q320.8 627.8 326.6 638.9Z"></path><path d="M354.6 650.0Q354.6 650.0 352.9 663.1Q351.2 676.1 343.8 687.9Q336.4 699.7 327.2 709.9Q318.0 720.2 309.1 729.8Q300.2 739.5 291.0 748.8Q281.8 758.1 270.5 765.7Q259.2 773.2 245.1 776.7Q230.9 780.3 215.6 778.7Q200.4 777.1 186.5 772.2Q172.6 767.2 161.3 763.0Q150.0 758.7 139.5 758.8Q129.0 758.9 115.9 764.1Q102.8 769.2 85.1 776.1Q67.4 782.9 46.8 786.3Q26.3 789.7 7.9 785.6Q-10.5 781.6 -21.2 770.0Q-32.0 758.4 -33.0 742.6Q-34.0 726.9 -27.9 711.3Q-21.8 695.8 -14.1 683.0Q-6.5 670.3 -1.9 660.2Q2.6 650.0 3.1 640.5Q3.5 631.0 2.6 620.7Q1.6 610.5 3.0 599.8Q4.3 589.1 9.9 579.5Q15.4 569.8 24.2 561.9Q32.9 554.0 42.6 546.9Q52.3 539.7 61.7 531.4Q71.1 523.1 81.4 512.8Q91.6 502.6 104.6 492.4Q117.6 482.2 133.8 476.1Q150.0 470.1 167.0 472.0Q184.0 473.9 197.8 484.3Q211.5 494.7 219.4 510.2Q227.2 525.7 230.2 540.9Q233.2 556.1 235.8 566.8Q238.4 577.5 245.6 583.1Q252.8 588.7 266.2 592.3Q279.6 595.8 296.3 601.2Q313.0 606.6 327.1 615.9Q341.2 625.2 347.9 637.6Z"></path><path d="M713.2 620.0Q713.2 620.0 713.0 622.1Q712.8 624.3 711.9 626.3Q711.1 628.3 709.4 629.9Q707.8 631.6 705.7 632.8Q703.6 634.1 701.6 635.0Q699.5 636.0 697.8 637.1Q696.1 638.1 694.6 639.6Q693.1 641.1 691.4 642.9Q689.8 644.7 687.6 646.5Q685.5 648.2 682.7 649.3Q680.0 650.4 677.1 650.3Q674.2 650.3 671.5 649.1Q668.9 648.0 666.9 646.1Q664.9 644.3 663.4 642.4Q661.9 640.4 660.6 638.7Q659.3 637.0 657.9 635.5Q656.5 634.0 655.0 632.5Q653.5 631.1 652.2 629.4Q651.0 627.7 650.2 625.8Q649.5 624.0 649.4 622.0Q649.2 620.0 649.4 618.0Q649.6 616.1 649.9 614.1Q650.2 612.1 650.5 609.9Q650.7 607.8 651.3 605.5Q651.8 603.2 653.0 601.1Q654.3 598.9 656.3 597.3Q658.4 595.7 661.2 595.0Q664.0 594.3 667.0 594.6Q670.0 594.8 672.7 595.6Q675.4 596.4 677.7 597.1Q680.0 597.9 682.1 598.2Q684.2 598.4 686.4 598.2Q688.7 598.0 691.3 597.8Q694.0 597.5 696.7 597.8Q699.5 598.0 702.0 598.9Q704.5 599.9 706.4 601.5Q708.2 603.2 709.4 605.2Q710.5 607.2 711.2 609.4Q711.8 611.5 712.3 613.6Q712.7 615.8 713.0 617.9Z"></path><path d="M732.1 620.0Q732.1 620.0 731.8 623.3Q731.5 626.7 730.0 629.8Q728.6 632.9 725.9 635.5Q723.3 638.1 719.9 639.9Q716.6 641.8 713.3 643.2Q710.0 644.6 707.4 646.3Q704.7 647.9 702.5 650.2Q700.2 652.6 697.8 655.6Q695.3 658.6 691.9 661.5Q688.6 664.4 684.3 666.2Q680.0 668.0 675.4 668.0Q670.7 667.9 666.6 666.0Q662.5 664.1 659.4 661.1Q656.3 658.1 654.1 654.9Q651.8 651.8 649.9 649.0Q647.9 646.3 645.7 644.0Q643.6 641.7 641.2 639.4Q638.9 637.2 636.9 634.6Q634.9 632.0 633.7 629.1Q632.5 626.2 632.3 623.1Q632.1 620.0 632.4 616.9Q632.7 613.9 633.1 610.7Q633.5 607.6 633.8 604.2Q634.2 600.9 634.9 597.2Q635.7 593.6 637.5 590.1Q639.3 586.6 642.6 584.1Q645.9 581.5 650.4 580.5Q654.8 579.5 659.6 580.1Q664.4 580.6 668.7 582.0Q672.9 583.5 676.5 584.8Q680.0 586.0 683.2 586.5Q686.4 586.9 689.9 586.5Q693.4 586.1 697.6 585.6Q701.7 585.0 706.2 585.2Q710.6 585.4 714.6 586.9Q718.6 588.3 721.5 590.9Q724.5 593.5 726.2 596.7Q728.0 600.0 729.0 603.3Q730.0 606.7 730.6 610.0Q731.3 613.3 731.7 616.7Z"></path><path d="M751.0 620.0Q751.0 620.0 750.6 624.6Q750.3 629.1 748.2 633.4Q746.2 637.6 742.5 641.1Q738.7 644.5 734.0 646.9Q729.3 649.4 724.8 651.2Q720.2 653.0 716.7 655.2Q713.1 657.3 710.2 660.6Q707.2 663.8 704.0 668.1Q700.8 672.4 696.3 676.7Q691.8 680.9 685.9 683.5Q680.0 686.1 673.6 686.1Q667.3 686.0 661.6 683.3Q656.0 680.6 651.8 676.3Q647.7 672.0 644.8 667.5Q641.8 663.1 639.3 659.3Q636.7 655.5 633.8 652.4Q630.9 649.2 627.7 646.2Q624.5 643.2 621.7 639.7Q618.9 636.3 617.3 632.3Q615.6 628.4 615.3 624.2Q615.0 620.0 615.5 615.8Q615.9 611.7 616.4 607.4Q616.9 603.2 617.2 598.5Q617.5 593.9 618.4 588.9Q619.3 583.8 621.7 579.0Q624.1 574.1 628.6 570.6Q633.1 567.1 639.3 565.8Q645.5 564.5 652.1 565.4Q658.8 566.4 664.6 568.6Q670.5 570.8 675.2 572.7Q680.0 574.6 684.3 575.2Q688.5 575.9 693.3 575.2Q698.0 574.5 703.7 573.6Q709.4 572.6 715.6 572.7Q721.8 572.8 727.3 574.7Q732.9 576.6 736.9 580.2Q740.9 583.7 743.3 588.1Q745.7 592.6 746.9 597.2Q748.2 601.8 749.1 606.4Q750.0 610.9 750.5 615.5Z"></path><path d="M770.1 620.0Q770.1 620.0 769.6 625.8Q769.2 631.6 766.5 637.0Q763.9 642.4 759.0 646.7Q754.1 651.0 747.9 653.9Q741.8 656.8 736.0 659.0Q730.1 661.1 725.6 663.8Q721.1 666.4 717.6 670.7Q714.1 674.9 710.2 680.6Q706.3 686.3 700.6 691.9Q695.0 697.6 687.5 701.1Q680.0 704.7 671.8 704.6Q663.7 704.5 656.5 700.9Q649.4 697.3 644.2 691.7Q639.0 686.0 635.5 680.1Q631.9 674.3 628.8 669.4Q625.7 664.5 622.1 660.6Q618.5 656.6 614.4 652.9Q610.3 649.1 606.7 644.8Q603.0 640.5 600.9 635.5Q598.9 630.5 598.5 625.3Q598.1 620.0 598.7 614.8Q599.3 609.5 599.8 604.1Q600.3 598.8 600.6 592.8Q600.8 586.9 601.7 580.4Q602.6 573.9 605.6 567.6Q608.5 561.4 614.3 556.9Q620.0 552.3 628.0 550.8Q636.0 549.2 644.6 550.7Q653.1 552.1 660.6 555.2Q668.1 558.3 674.0 560.9Q680.0 563.6 685.3 564.4Q690.6 565.2 696.5 564.2Q702.5 563.2 709.8 561.8Q717.1 560.3 725.0 560.2Q733.0 560.2 740.2 562.5Q747.4 564.8 752.5 569.3Q757.6 573.7 760.6 579.4Q763.5 585.1 765.1 591.0Q766.6 596.9 767.7 602.7Q768.7 608.5 769.4 614.2Z"></path><path d="M789.3 620.0Q789.3 620.0 788.8 627.0Q788.2 634.0 784.9 640.6Q781.6 647.1 775.5 652.2Q769.4 657.3 761.7 660.7Q754.0 664.1 746.9 666.5Q739.7 669.0 734.3 672.1Q728.9 675.2 724.9 680.5Q720.8 685.7 716.3 692.9Q711.7 700.1 705.0 707.3Q698.3 714.5 689.1 719.0Q680.0 723.6 670.0 723.6Q660.0 723.5 651.3 719.0Q642.6 714.4 636.4 707.2Q630.2 700.1 626.2 692.7Q622.1 685.4 618.5 679.4Q615.0 673.3 610.6 668.6Q606.3 663.9 601.3 659.4Q596.3 655.0 591.8 649.8Q587.3 644.7 584.8 638.7Q582.2 632.7 581.8 626.4Q581.3 620.0 582.0 613.7Q582.7 607.4 583.3 600.9Q583.8 594.4 583.9 587.1Q584.0 579.9 584.9 571.9Q585.7 563.8 589.2 556.1Q592.6 548.4 599.7 542.8Q606.7 537.2 616.5 535.5Q626.4 533.7 636.9 535.8Q647.4 537.8 656.6 541.9Q665.7 546.0 672.9 549.5Q680.0 553.0 686.3 554.0Q692.5 555.1 699.7 553.6Q706.9 552.2 715.8 550.2Q724.7 548.1 734.5 547.8Q744.3 547.4 753.2 550.1Q762.0 552.7 768.3 558.2Q774.6 563.6 778.1 570.6Q781.6 577.5 783.4 584.8Q785.2 592.0 786.4 599.0Q787.6 606.0 788.5 613.0Z"></path><path d="M808.7 620.0Q808.7 620.0 808.0 628.3Q807.3 636.5 803.4 644.2Q799.5 651.8 792.0 657.8Q784.6 663.7 775.3 667.5Q766.0 671.3 757.5 673.9Q749.0 676.5 742.7 680.1Q736.5 683.7 731.9 690.0Q727.4 696.2 722.3 705.0Q717.2 713.8 709.4 722.7Q701.6 731.7 690.8 737.3Q680.0 743.0 668.1 742.9Q656.3 742.9 646.0 737.4Q635.7 731.8 628.6 723.0Q621.4 714.3 616.9 705.3Q612.3 696.4 608.3 689.2Q604.4 682.0 599.4 676.5Q594.4 671.0 588.4 665.9Q582.5 660.7 577.1 654.8Q571.8 648.8 568.7 641.8Q565.7 634.8 565.2 627.4Q564.7 620.0 565.5 612.6Q566.3 605.2 566.9 597.6Q567.4 590.0 567.3 581.4Q567.2 572.9 567.9 563.3Q568.6 553.7 572.5 544.4Q576.4 535.1 584.7 528.5Q593.0 521.8 604.8 519.9Q616.6 518.0 629.2 520.8Q641.8 523.5 652.6 528.8Q663.4 534.1 671.7 538.5Q680.0 542.9 687.2 544.1Q694.4 545.3 702.8 543.4Q711.1 541.5 721.7 538.7Q732.2 536.0 744.0 535.3Q755.7 534.5 766.3 537.5Q776.9 540.5 784.3 547.0Q791.8 553.4 795.8 561.7Q799.9 569.9 801.9 578.5Q803.9 587.0 805.3 595.3Q806.7 603.5 807.7 611.8Z"></path><path d="M828.2 620.0Q828.2 620.0 827.4 629.5Q826.6 639.0 822.0 647.8Q817.3 656.6 808.5 663.3Q799.7 670.0 788.8 674.2Q777.8 678.3 767.9 681.1Q757.9 683.9 750.8 687.9Q743.7 691.9 738.7 699.2Q733.8 706.6 728.2 717.1Q722.6 727.6 713.8 738.3Q704.9 749.1 692.5 755.9Q680.0 762.7 666.2 762.8Q652.4 762.8 640.6 756.1Q628.7 749.5 620.6 739.0Q612.6 728.5 607.6 717.9Q602.6 707.4 598.3 699.0Q594.0 690.6 588.3 684.3Q582.7 678.0 575.8 672.2Q568.9 666.4 562.6 659.7Q556.4 652.9 552.8 645.0Q549.2 637.0 548.7 628.5Q548.2 620.0 549.1 611.6Q550.1 603.1 550.5 594.4Q551.0 585.6 550.6 575.7Q550.2 565.8 550.8 554.6Q551.3 543.3 555.6 532.4Q559.9 521.5 569.5 513.8Q579.1 506.1 592.9 504.1Q606.7 502.0 621.4 505.6Q636.1 509.2 648.6 515.8Q661.1 522.3 670.6 527.7Q680.0 533.1 688.1 534.6Q696.2 536.0 705.7 533.6Q715.2 531.1 727.4 527.5Q739.7 524.0 753.4 522.8Q767.2 521.6 779.6 524.9Q792.0 528.2 800.6 535.6Q809.2 543.0 813.8 552.6Q818.4 562.2 820.5 572.1Q822.7 582.0 824.2 591.5Q825.8 601.1 827.0 610.5Z"></path><path d="M847.7 620.0Q847.7 620.0 846.9 630.8Q846.0 641.6 840.6 651.5Q835.3 661.4 825.0 668.8Q814.8 676.3 802.1 680.7Q789.4 685.2 777.9 688.0Q766.5 690.9 758.6 695.3Q750.6 699.7 745.4 708.2Q740.1 716.7 734.1 729.0Q728.1 741.3 718.2 754.0Q708.3 766.7 694.2 774.8Q680.0 782.9 664.2 783.0Q648.5 783.1 635.0 775.3Q621.6 767.5 612.6 755.2Q603.6 742.9 598.3 730.6Q593.0 718.2 588.4 708.6Q583.8 698.9 577.5 691.9Q571.2 684.8 563.4 678.4Q555.5 672.0 548.3 664.5Q541.1 657.0 537.0 648.0Q532.9 639.1 532.3 629.6Q531.7 620.0 532.8 610.5Q533.9 601.0 534.3 591.2Q534.7 581.3 534.0 570.0Q533.2 558.7 533.5 545.8Q533.7 532.9 538.4 520.3Q543.1 507.7 554.0 498.9Q564.9 490.1 580.8 487.9Q596.6 485.8 613.5 490.3Q630.4 494.9 644.7 502.8Q658.9 510.8 669.5 517.3Q680.0 523.8 689.0 525.5Q697.9 527.2 708.6 524.1Q719.2 521.0 733.2 516.5Q747.1 512.0 762.9 510.3Q778.7 508.6 793.0 512.1Q807.2 515.7 817.0 524.1Q826.9 532.5 832.0 543.4Q837.1 554.4 839.4 565.6Q841.7 576.9 843.4 587.7Q845.0 598.6 846.4 609.3Z"></path><path d="M867.5 620.0Q867.5 620.0 866.5 632.0Q865.5 644.1 859.4 655.1Q853.2 666.2 841.5 674.4Q829.8 682.6 815.2 687.2Q800.7 691.9 787.7 694.8Q774.8 697.7 766.1 702.5Q757.3 707.3 751.7 716.9Q746.2 726.5 739.8 740.8Q733.5 755.0 722.6 769.8Q711.8 784.6 695.9 794.1Q680.0 803.6 662.2 803.7Q644.5 803.9 629.4 794.8Q614.3 785.8 604.5 771.6Q594.6 757.4 589.0 743.2Q583.4 729.0 578.6 718.1Q573.8 707.1 566.9 699.3Q560.0 691.5 551.2 684.5Q542.3 677.5 534.2 669.3Q526.0 661.0 521.4 651.1Q516.7 641.2 516.1 630.6Q515.5 620.0 516.7 609.5Q517.9 598.9 518.2 588.0Q518.5 577.0 517.3 564.2Q516.1 551.5 516.0 536.9Q515.9 522.3 520.9 507.9Q525.9 493.6 538.2 483.7Q550.4 473.7 568.4 471.5Q586.4 469.3 605.5 474.9Q624.7 480.5 640.7 490.0Q656.7 499.5 668.4 507.2Q680.0 514.9 689.8 516.9Q699.5 518.8 711.3 515.0Q723.1 511.3 738.8 505.7Q754.4 500.2 772.4 497.8Q790.3 495.5 806.5 499.3Q822.7 503.0 833.7 512.4Q844.8 521.8 850.4 534.1Q856.0 546.5 858.4 559.2Q860.8 571.8 862.6 583.9Q864.4 596.1 865.9 608.0Z"></path>
</g></svg>